<svg xmlns="http://www.w3.org/2000/svg" viewBox="0 0 1125.37 1200"><defs><style>.cls-1{fill:#64ac00;}</style></defs><title>food-plan-icon-green</title><g id="Layer_2" data-name="Layer 2"><g id="Layer_1-2" data-name="Layer 1"><path class="cls-1" d="M303.21,781.44c-30.18,18.8-90.22,48-107.75,39.12-13.8-7-23.05-24.52-19.57-40.59,3.64-16.91,55.34-52.47,87.94-67.88,14.85-7,98.63-47.06,185.88-89.27C338.53,604,181.8,601.46,102.2,646c-89,49.77-120.77,162.25-71,251.22s162.25,120.78,251.23,71c83.4-46.65,170.4-197.77,209.62-304.86C404.75,717.66,317.56,772.5,303.21,781.44"/><path class="cls-1" d="M597.72,697.84c4.82,95.78,9.45,186.38,10.48,202.34,2.36,36-3.64,98.45-16.65,109.83-12.37,10.84-32.17,11.26-45,2.59-16.3-11-19.88-77.68-18.09-113.2.8-16.08,5.34-110.85,10-209.25-73.16,87.35-158.19,232-158.19,325.22,0,102,82.66,184.62,184.61,184.62s184.61-82.66,184.61-184.62c0-92.22-80.46-229.82-151.79-317.54"/><path class="cls-1" d="M1030.85,646c-82.49-46.14-247.79-41.77-359.4-21.05l7.65,4.51c72,42.6,220.45,127.76,236.78,137.21,29.61,17.12-2.37,78.12-58.08,45.84-37-21.39-127.6-86.85-186.09-133.88-9.41-7.57-20.93-16.19-33.62-25.25a37.35,37.35,0,0,0,1.83,7.07C678.6,767.69,766.46,921.14,850.62,968.2c89,49.78,201.46,18,251.23-71s18-201.47-71-251.23"/><path class="cls-1" d="M546.94,519.81c1.73-37.33,2.92-63.73,3.12-69.47.25-16.19-23.74-45.51-32.7-59.48C488,345.17,475,260.1,515.57,193.56c19.43-31.86,36.2-46.44,51.86-47.5,15.69,1,32.51,15.53,52,47.31,40.82,66.39,28.07,151.49-1.07,197.27-8.88,14-32.66,43.28-32.47,59.48.2,4.26,1.36,28,3.07,62.47,73.67-87,160.51-233.81,160.51-328C749.51,82.66,666.86,0,564.9,0S380.29,82.66,380.29,184.61C380.29,283,471.83,433,546.18,519c.25.28.51.53.76.81"/><path class="cls-1" d="M474.11,561c-30.54-1.64-91.58,11.33-128.68-11.7C247.89,488.76,192.15,407.93,182.6,370.8s-2.29-30,22.67-16.6c14.58,7.82,149.28,85.67,273.17,157.56C436.87,406.1,354.18,267,274.75,222.54c-89-49.77-201.46-18-251.23,71s-18,201.47,71,251.23c85.84,48,261.43,41.35,372.81,18.45a36,36,0,0,0,7-2.2l-.26,0"/><path class="cls-1" d="M1100.66,293.54c-49.77-89-162.26-120.77-251.23-71-84.16,47.07-172,200.52-210.71,307.77l0,.1c13.41-6.91,22.31-11.73,25-13.65,19.39-14,30.2-35.52,37.4-50.58s24.07-26.59,38.31-33.91S904.68,352.64,917,346.83c9.64-4.56,12.69,1,2.66,6.83-7.55,4.4-126.23,74.28-138.07,81.11-6.41,3.7-2.81,11.89,5.07,7.92,1.31-.67,139.89-70.09,150.7-75.54,9.35-4.72,12.48.55,3.71,5.82-10.79,6.45-31,18-148.19,87.59-5.38,3.6-1.16,11,4.83,8.35,121.76-61.62,141.55-72.74,152.81-78.34,9.79-4.88,12.85.54,3.82,5.95-10.41,6.22-144.67,87.47-145.89,88.26-5.22,3.37-2.37,11.85,5.74,7.78,12.2-6.12,135.42-70.49,143.17-74.51s11.31,1.52,4.37,5.9c-11.51,7.26-154.66,97.74-168.44,105.91s-32.52,16.32-49.09,14.39-40.54-4.18-62.73,4.76c-3.07,1.25-12,6.28-25.23,14.07.21,0,.41.11.62.15,111.38,22.9,287,29.56,372.81-18.45,89-49.77,120.77-162.25,71-251.23"/></g></g></svg>